<?xml version="1.0" encoding="UTF-8"?>
<svg id="Layer_2" data-name="Layer 2" xmlns="http://www.w3.org/2000/svg" xmlns:xlink="http://www.w3.org/1999/xlink" viewBox="0 0 1098.53 374.23">
  <defs>
    <style>
      .cls-1 {
        fill: #fff;
      }
    </style>
  </defs>
  <g id="Layer_1-2" data-name="Layer 1">
    <g>
      <image width="512" height="512" transform="translate(230.12 14.18) scale(.49 .6)" xlink:href="../../../../../Desktop/Chompers.png"/>
      <g>
        <g>
          <path class="cls-1" d="m73.03,323.48c-15.67,0-30.66-14.47-44.53-43.01-14.27-29.36-21.51-67.47-21.51-113.28s7.33-85.44,21.78-115.77C42.84,21.95,58.08,7,74.09,7c6.85,0,14.13,2.81,21.62,8.35,7.41,5.48,13.79,12.96,18.96,22.22l-18.89,103.39c-5.13-3.73-10.95-5.61-17.37-5.61-8.66,0-18.99,4.71-18.99,27.12,0,8.16,1.6,14.86,4.74,19.92,3.43,5.51,8.43,8.43,14.46,8.43,6.41,0,12.19-2.31,17.25-6.88l18.81,110.38c-3.97,6.99-9.71,13.65-17.08,19.81-7.53,6.29-15.57,9.35-24.57,9.35Z"/>
          <path d="m74.09,10.5c6.09,0,12.66,2.58,19.54,7.66,6.72,4.97,12.56,11.7,17.37,20.03l-17.75,97.11c-4.54-2.3-9.51-3.46-14.85-3.46-8.4,0-22.49,3.98-22.49,30.62,0,8.82,1.77,16.15,5.27,21.77,4.1,6.6,10.13,10.08,17.43,10.08,5.34,0,10.28-1.39,14.77-4.14l17.63,103.47c-3.73,6.24-8.99,12.22-15.66,17.79-6.88,5.75-14.18,8.54-22.33,8.54-14.22,0-28.14-13.81-41.38-41.04-14.04-28.88-21.16-66.48-21.16-111.75s7.21-84.41,21.44-114.26c13.42-28.15,27.6-42.43,42.14-42.43m0-7c-17.56,0-33.71,15.47-48.46,46.42C10.87,80.86,3.5,119.95,3.5,167.19s7.29,84.82,21.86,114.81c14.57,29.99,30.46,44.98,47.67,44.98,9.76,0,18.7-3.39,26.81-10.17,8.11-6.78,14.28-14.07,18.49-21.87l-20.23-118.71c-5.48,7.39-11.98,11.09-19.49,11.09-4.85,0-8.68-2.26-11.48-6.78-2.81-4.52-4.21-10.54-4.21-18.07,0-15.74,5.16-23.62,15.49-23.62,7.59,0,14.15,2.95,19.7,8.83l20.23-110.7c-5.55-10.27-12.4-18.41-20.54-24.44-8.15-6.02-16.05-9.04-23.71-9.04h0Z"/>
        </g>
        <g>
          <polygon class="cls-1" points="207.7 318.75 207.7 202.3 175.84 202.3 175.84 318.75 134.48 318.75 134.48 12.34 175.84 12.34 175.84 127.15 207.7 127.15 207.7 12.34 248.96 12.34 248.96 318.75 207.7 318.75"/>
          <path d="m245.46,15.84v299.41h-34.25v-116.45h-38.86v116.45h-34.36V15.84h34.36v114.81h38.86V15.84h34.25m7-7h-48.25v114.81h-24.86V8.84h-48.36v313.41h48.36v-116.45h24.86v116.45h48.25V8.84h0Z"/>
        </g>
        <g>
          <polygon class="cls-1" points="547.28 318.75 547.28 141.94 525.27 213.84 503.62 141.42 503.62 318.75 462.26 318.75 462.26 12.34 503.04 12.34 525.23 86.3 547.54 12.34 588.64 12.34 588.64 318.75 547.28 318.75"/>
          <path d="m585.14,15.84v299.41h-34.36V118.55l-13.69,44.74-11.77,38.46-11.49-38.42-13.71-45.83v197.74h-34.36V15.84h34.67l18.1,60.32,6.69,22.29,6.72-22.28,18.2-60.33h35m7-7h-47.2l-19.7,65.31-19.6-65.31h-46.88v313.41h48.36v-156.91l18.12,60.59,18.54-60.59v156.91h48.36V8.84h0Z"/>
        </g>
        <g>
          <path class="cls-1" d="m618.08,318.75V12.34h43.17c16.64,0,28.42,2.19,35.01,6.51,6.45,4.23,12.13,14.8,16.89,31.41,4.91,17.14,7.4,38.3,7.4,62.91,0,30.54-3.5,56.03-10.39,75.76-6.48,18.55-14.32,27.95-23.3,27.95l-27.41-.24v102.11h-41.36Zm47.85-170.04h.27c5.68,0,9.99-3.92,12.82-11.64,2.45-6.69,3.64-15.71,3.64-27.6,0-12.95-1.19-21.83-3.64-27.14-2.79-6.03-8.06-9.22-15.24-9.22h-4.34v75.19h3.86l2.63.41Z"/>
          <path d="m661.25,15.84c19.86,0,28.96,3.23,33.09,5.94,3.93,2.58,9.81,9.79,15.44,29.45,4.82,16.83,7.26,37.67,7.26,61.95,0,30.15-3.43,55.25-10.2,74.61-7.38,21.13-14.93,25.59-19.97,25.6l-23.88-.21-7.06-.06v102.14h-34.36V15.84h39.67m-5.31,135.96h7.09l2.1.33.54.08h.54c5.02,0,11.89-2.42,16.11-13.94,2.59-7.08,3.85-16.5,3.85-28.8,0-13.66-1.26-22.75-3.96-28.61-3.35-7.26-9.89-11.25-18.42-11.25h-7.84v82.19m5.31-142.96h-46.67v313.41h48.36v-102.07l23.91.21c10.68,0,19.54-10.1,26.6-30.29,7.06-20.19,10.59-45.83,10.59-76.92,0-25.06-2.51-46.35-7.53-63.87-5.02-17.52-11.13-28.65-18.33-33.37-7.2-4.72-19.51-7.09-36.93-7.09h0Zm1.69,135.96v-68.19h.84c5.83,0,9.85,2.4,12.06,7.19,2.21,4.79,3.32,13.35,3.32,25.67,0,11.37-1.14,20.16-3.42,26.39-2.28,6.23-5.46,9.34-9.54,9.34l-2.63-.41h-.63Z"/>
        </g>
        <g>
          <polygon class="cls-1" points="740.4 318.75 740.4 12.34 824.11 12.34 824.11 84 781.75 84 781.75 129.82 811.36 129.82 811.36 201.48 781.75 201.48 781.75 247.09 824.11 247.09 824.11 318.75 740.4 318.75"/>
          <path d="m820.61,15.84v64.66h-42.35v52.82h29.61v64.66h-29.61v52.61h42.35v64.66h-76.71V15.84h76.71m7-7h-90.71v313.41h90.71v-78.66h-42.35v-38.61h29.61v-78.66h-29.61v-38.82h42.35V8.84h0Z"/>
        </g>
        <g>
          <path class="cls-1" d="m915.33,318.75l-21.06-116.04h-7.05v116.04h-41.36V12.34h44.86c16.27,0,27.19,1.03,32.46,3.05,4.86,1.87,9.25,6.35,13.04,13.3,4.02,7.38,7.32,17.68,9.8,30.61,2.51,13.08,3.78,27.13,3.78,41.75,0,41.83-6.53,69.53-19.41,82.34l-1.35,1.35,28.78,134.01h-42.48Zm-28.12-181.54h4.76c4.27,0,10.07-1.65,13.44-9.52,2.32-5.42,3.44-13.59,3.44-25,0-21.81-5.82-32.87-17.3-32.87h-4.34v67.38Z"/>
          <path d="m890.72,15.84c19.73,0,27.86,1.53,31.2,2.82,4.07,1.57,7.84,5.51,11.22,11.71,3.85,7.06,7.02,17.02,9.44,29.6,2.47,12.86,3.72,26.69,3.72,41.09,0,40.86-6.18,67.73-18.38,79.86l-2.71,2.7.8,3.74,27.47,127.9h-35.23l-20.02-110.29-1.04-5.75h-13.48v116.04h-34.36V15.84h41.36m-7,124.87h8.26c7.53,0,13.45-4.13,16.65-11.64,2.51-5.86,3.72-14.49,3.72-26.37,0-10.93-1.35-19.11-4.11-25-3.44-7.33-9.37-11.37-16.69-11.37h-7.84v74.38m7-131.87h-48.36v313.41h48.36v-116.04h.63l20.54,113.17v2.88h50.26l-29.29-136.37c13.63-13.56,20.44-41.83,20.44-84.82,0-14.92-1.28-29.06-3.85-42.41-2.57-13.35-5.95-23.89-10.17-31.63-4.21-7.73-9.16-12.7-14.85-14.89-5.69-2.19-16.93-3.29-33.71-3.29h0Zm0,124.87v-60.38h.84c9.2,0,13.8,9.79,13.8,29.37,0,10.82-1.05,18.69-3.16,23.62-2.11,4.93-5.52,7.39-10.22,7.39h-1.26Z"/>
        </g>
        <g>
          <path class="cls-1" d="m1026.94,323.68c-4.58,0-8.95-.84-13-2.51-4.17-1.71-8.1-4.03-11.69-6.89-3.66-2.92-7.07-6.28-10.13-9.97-3.13-3.78-5.98-7.7-8.48-11.65-5.68-8.9-10.64-19.11-14.78-30.36l23.27-36.56c1.84,3.89,3.84,7.57,5.97,10.98,3.22,5.15,6.58,9.64,9.98,13.35,3.48,3.79,6.99,6.74,10.45,8.77,3.38,1.97,6.63,2.97,9.66,2.97.36,0,.72-.01,1.07-.04,3.66-.29,6.78-2.1,9.26-5.38,2.26-3,3.71-7.31,4.42-13.19.07-.65.12-1.73.02-4.94-.08-2.49-.46-5.19-1.15-8.01-.7-2.86-1.79-5.72-3.25-8.5-1.69-3.2-4.16-5.61-7.36-7.17-5.61-2.9-11.02-6.08-16.02-9.42-4.91-3.27-9.47-7.05-13.56-11.24-4.09-4.18-7.83-8.99-11.12-14.29-3.29-5.3-6.19-11.53-8.63-18.51-2.72-7.7-4.71-15.93-5.89-24.49-1.2-8.62-1.77-17.5-1.71-26.4.07-8.89.75-17.75,2.02-26.32,1.27-8.58,3.03-16.79,5.22-24.4,2.18-7.57,4.8-14.5,7.79-20.58,2.93-5.97,6.21-10.94,9.75-14.78,5.31-5.82,10.54-10.02,15.56-12.48,4.99-2.45,9.83-3.81,14.4-4.06.63-.03,1.26-.05,1.88-.05,3.88,0,7.66.67,11.25,2,4.33,1.6,8.4,3.71,12.07,6.26,8.47,5.88,16.53,14.44,23.97,25.45l-16.71,40.69c-2.33-4.33-4.54-7.79-6.68-10.49-3.34-4.21-6.4-6.98-9.34-8.45-2.07-1.03-4.08-1.56-5.98-1.56-1.15,0-2.27.19-3.34.57-2.48.88-4.62,2.31-6.37,4.23-1.62,1.79-2.93,3.8-3.88,5.98-.91,2.07-1.47,3.66-1.74,4.86-.21.97-.49,2.27-.85,3.92-.4,1.87-.6,4.01-.6,6.38s.33,4.99,1,7.71c.68,2.83,2.01,5.78,3.93,8.77,1.88,2.92,4.47,5.88,7.7,8.81,3.22,2.92,7.46,5.79,12.62,8.51,6.23,3.23,11.62,7.3,16.02,12.11,4.48,4.89,8.3,10.37,11.38,16.29,3.1,5.99,5.6,12.46,7.42,19.22,1.84,6.86,3.23,14.02,4.12,21.29.89,7.32,1.44,14.77,1.61,22.15.17,7.44.16,14.77-.05,21.79-.34,10.35-1.99,21.07-4.89,31.85-2.88,10.71-7.04,20.49-12.35,29.05-5.24,8.47-11.7,15.49-19.19,20.88-7.26,5.22-15.7,7.87-25.09,7.87Z"/>
          <path d="m1030.91,11.06c3.46,0,6.84.6,10.04,1.78,4.06,1.5,7.86,3.47,11.29,5.86,7.72,5.36,15.11,13.09,22.01,22.99l-13.31,32.39c-1.15-1.79-2.27-3.39-3.39-4.79-3.66-4.62-7.1-7.69-10.51-9.41-2.56-1.28-5.1-1.93-7.55-1.93-1.55,0-3.07.26-4.52.77-3.02,1.08-5.64,2.82-7.78,5.17-1.88,2.07-3.39,4.4-4.5,6.94-1.01,2.31-1.63,4.06-1.95,5.51-.21.97-.5,2.28-.85,3.93-.45,2.11-.68,4.5-.68,7.12s.37,5.54,1.09,8.52c.78,3.22,2.26,6.53,4.4,9.85,2.05,3.17,4.84,6.37,8.29,9.5,3.44,3.12,7.92,6.15,13.34,9.02h.02s.02.02.02.02c5.85,3.03,10.9,6.85,15.02,11.35,4.27,4.66,7.92,9.89,10.85,15.54,2.99,5.77,5.39,12,7.15,18.52,1.8,6.71,3.16,13.71,4.03,20.8.88,7.21,1.41,14.54,1.58,21.8.17,7.39.15,14.66-.05,21.58-.33,10.1-1.94,20.55-4.77,31.07-2.8,10.38-6.81,19.84-11.94,28.12-5,8.07-11.14,14.76-18.26,19.87-6.75,4.85-14.29,7.21-23.04,7.21-4.12,0-8.04-.76-11.67-2.25-3.86-1.59-7.51-3.74-10.83-6.39-3.47-2.77-6.71-5.95-9.61-9.47-3.03-3.66-5.8-7.46-8.23-11.31-5.27-8.26-9.91-17.68-13.83-28.06l19.03-29.9c1.08,1.99,2.2,3.92,3.35,5.77,3.34,5.34,6.82,10,10.36,13.86,3.72,4.06,7.51,7.23,11.27,9.43,3.92,2.29,7.76,3.45,11.43,3.45.45,0,.9-.02,1.34-.05,3.23-.25,7.9-1.63,11.79-6.77,2.64-3.5,4.31-8.37,5.1-14.87v-.07s.02-.07.02-.07c.07-.73.14-1.94.03-5.33-.08-2.73-.5-5.67-1.25-8.73-.76-3.14-1.96-6.27-3.56-9.31-2.02-3.84-5-6.75-8.84-8.64-5.54-2.86-10.82-5.96-15.7-9.22-4.7-3.14-9.07-6.76-13-10.78-3.91-4-7.49-8.6-10.65-13.69-3.16-5.09-5.95-11.08-8.3-17.85-2.64-7.46-4.57-15.46-5.72-23.79-1.18-8.45-1.74-17.16-1.67-25.89.07-8.73.73-17.42,1.98-25.83,1.25-8.42,2.97-16.48,5.12-23.94,2.12-7.38,4.67-14.11,7.56-20.01,2.78-5.66,5.87-10.36,9.21-13.98,5-5.48,9.88-9.41,14.5-11.68,4.56-2.24,8.95-3.49,13.05-3.71.57-.03,1.14-.05,1.7-.05m0-7c-.69,0-1.38.02-2.07.06-5.06.28-10.31,1.75-15.75,4.42-5.44,2.67-10.97,7.09-16.59,13.25-3.79,4.11-7.23,9.31-10.32,15.61-3.09,6.3-5.76,13.35-8.01,21.15-2.25,7.8-4.02,16.09-5.32,24.85-1.3,8.76-1.98,17.7-2.05,26.8-.07,9.11.51,18.07,1.74,26.9,1.23,8.83,3.25,17.22,6.06,25.16,2.53,7.26,5.51,13.66,8.96,19.2,3.44,5.55,7.3,10.51,11.59,14.89,4.28,4.38,8.99,8.29,14.12,11.71,5.13,3.42,10.6,6.64,16.44,9.65,2.53,1.23,4.46,3.12,5.79,5.65,1.33,2.54,2.32,5.1,2.95,7.7.63,2.6.98,5.03,1.05,7.29.07,2.26.07,3.73,0,4.42-.63,5.21-1.88,9.04-3.74,11.5-1.86,2.46-4.11,3.8-6.74,4-.26.02-.53.03-.8.03-2.42,0-5.05-.83-7.89-2.5-3.16-1.85-6.37-4.55-9.64-8.11-3.27-3.56-6.46-7.84-9.59-12.84-3.13-5-5.92-10.51-8.38-16.53l-27.71,43.54c4.35,12.19,9.59,23.07,15.7,32.66,2.6,4.11,5.51,8.11,8.74,12.01,3.23,3.9,6.78,7.39,10.64,10.47,3.86,3.08,8.04,5.55,12.54,7.39,4.49,1.85,9.27,2.77,14.33,2.77,10.18,0,19.23-2.84,27.13-8.52,7.9-5.68,14.61-12.97,20.12-21.87,5.51-8.9,9.76-18.9,12.75-29.99,2.98-11.09,4.65-21.98,5-32.66.21-7.12.23-14.44.05-21.98-.18-7.53-.72-15.02-1.63-22.49-.91-7.46-2.32-14.72-4.21-21.77-1.9-7.05-4.46-13.69-7.69-19.92-3.23-6.23-7.2-11.91-11.91-17.05-4.71-5.13-10.36-9.41-16.96-12.84-4.92-2.6-8.89-5.27-11.91-8.01-3.02-2.74-5.39-5.44-7.11-8.11-1.72-2.67-2.88-5.24-3.48-7.7-.6-2.46-.9-4.76-.9-6.88s.17-4,.53-5.65c.35-1.64.63-2.94.84-3.9.21-.96.72-2.36,1.53-4.21.81-1.85,1.9-3.52,3.27-5.03,1.37-1.5,3.02-2.6,4.95-3.29.69-.24,1.41-.37,2.17-.37,1.36,0,2.83.4,4.42,1.19,2.46,1.23,5.18,3.73,8.16,7.5,2.99,3.77,6.23,9.34,9.75,16.74l20.33-49.5c-8.01-12.18-16.65-21.49-25.92-27.93-3.93-2.74-8.22-4.96-12.85-6.67-4-1.48-8.15-2.21-12.47-2.21h0Z"/>
        </g>
      </g>
      <path class="cls-1" d="m566.54,324.22c6.43,0,6.45-10,0-10s-6.45,10,0,10h0Z"/>
      <path class="cls-1" d="m589,46.79c6.43,0,6.45-10,0-10s-6.45,10,0,10h0Z"/>
      <path class="cls-1" d="m647.13,324.22c6.43,0,6.45-10,0-10s-6.45,10,0,10h0Z"/>
      <path class="cls-1" d="m711.86,50.75c6.43,0,6.45-10,0-10s-6.45,10,0,10h0Z"/>
      <path class="cls-1" d="m787.16,324.22c6.43,0,6.45-10,0-10s-6.45,10,0,10h0Z"/>
      <path class="cls-1" d="m792.16,319.22v-5.28c0-2.62-2.3-5.12-5-5s-5,2.2-5,5v5.28c0,2.62,2.3,5.12,5,5s5-2.2,5-5h0Z"/>
      <path class="cls-1" d="m817.55,41.5h7.93c2.62,0,5.12-2.3,5-5s-2.2-5-5-5h-7.93c-2.62,0-5.12,2.3-5,5s2.2,5,5,5h0Z"/>
      <path class="cls-1" d="m821.52,39.99c3.62.2,7.17,1.06,10.45,2.62,2.44,1.16,5.4.68,6.84-1.79,1.27-2.18.66-5.68-1.79-6.84-4.94-2.35-10.03-3.68-15.5-3.98-6.43-.35-6.41,9.65,0,10h0Z"/>
      <path class="cls-1" d="m941.72,32.97l-6.2,1.05,2.66,9.64c3.8-1.31,7.48-2.92,11-4.87,2.38-1.32,3.11-4.53,1.79-6.84-1.47-2.58-4.38-2.86-6.84-1.79-4.51,1.95-9.41,3.31-14.28,3.95-2.7.36-4.97,2.04-5,5-.03,2.43,2.32,5.35,5,5,6.78-.89,13.05-2.61,19.33-5.32l-5.05-8.63c-2.78,1.54-5.6,2.83-8.61,3.86-6.16,2.12-3.64,10.71,2.66,9.64l6.2-1.05c6.33-1.07,3.65-10.71-2.66-9.64h0Z"/>
      <path class="cls-1" d="m856.64,313.98c-1.5,10.32-1.07,20.45,1.62,30.55,1.66,6.21,11.3,3.58,9.64-2.66-2.2-8.27-2.85-16.75-1.62-25.24.92-6.29-8.72-9.01-9.64-2.66h0Z"/>
      <path class="cls-1" d="m1024.3,309.95c-.5,20.35,1.07,40.62,4.54,60.67,1.09,6.33,10.73,3.65,9.64-2.66-3.32-19.17-4.66-38.57-4.18-58.01.16-6.44-9.84-6.43-10,0h0Z"/>
      <path class="cls-1" d="m1059.32,52.85c10.17,7.75,21.27,13.79,33.18,18.39,6.01,2.32,8.61-7.35,2.66-9.64-11.08-4.28-21.36-10.19-30.79-17.39-5.12-3.9-10.1,4.78-5.05,8.63h0Z"/>
      <path class="cls-1" d="m241.55,45.26c8.8,1.38,17.6,2.77,26.39,4.15,6.3.99,9.01-8.64,2.66-9.64-8.8-1.38-17.6-2.77-26.39-4.15-6.3-.99-9.01,8.64-2.66,9.64h0Z"/>
      <path class="cls-1" d="m151.53,329.87c2.31-8.68,3.18-17.54,2.48-26.5-.5-6.37-10.5-6.43-10,0,.64,8.12-.02,15.97-2.12,23.84-1.66,6.23,7.99,8.88,9.64,2.66h0Z"/>
      <path class="cls-1" d="m55.83,304.58c-5.21,9.55-10.86,18.82-16.97,27.82-3.62,5.34,5.04,10.35,8.63,5.05,6.11-9,11.76-18.27,16.97-27.82,3.08-5.65-5.55-10.71-8.63-5.05h0Z"/>
      <path class="cls-1" d="m94.91,100.76l11.87,4.02c6.11,2.07,8.73-7.58,2.66-9.64l-11.87-4.02c-6.11-2.07-8.73,7.58-2.66,9.64h0Z"/>
    </g>
  </g>
</svg>