<?xml version="1.0" encoding="UTF-8"?>
<svg id="Layer_2" data-name="Layer 2" xmlns="http://www.w3.org/2000/svg" viewBox="0 0 283.51 315.24">
  <defs>
    <style>
      .cls-1 {
        fill: #494949;
        stroke: #000;
        stroke-miterlimit: 10;
        stroke-width: .5px;
      }
    </style>
  </defs>
  <g id="Layer_2-2" data-name="Layer 2">
    <path class="cls-1" d="m232.47,15.28v45.06c0,2.04-.98,3.96-2.65,5.15l-27.35,19.6c-5.75,4.12-1.44,13.15,5.38,11.26l6.25-1.73c3.03-.84,6.21.67,7.48,3.54l8.79,19.84c1.22,2.76.33,5.99-2.13,7.74l-12.31,8.73c-5.04,3.57-2.51,11.51,3.67,11.51h2.2c4.81,0,7.86,5.14,5.57,9.37l-5.5,10.11c-.21.39-.38.81-.51,1.23l-3.96,13.41c-1.2,4.06,1.84,8.13,6.08,8.13h2.65c3.5,0,6.34,2.84,6.34,6.34v4.07c0,1.47.51,2.89,1.44,4.02l9.17,11.18c.2.25.39.51.55.78l7.39,12.44c1.8,3.04.77,6.97-2.29,8.73l-14.26,8.2c-5.62,3.24-3.33,11.83,3.16,11.83h10.33c3.5,0,6.34,2.84,6.34,6.34h0c0,3.5,2.84,6.34,6.34,6.34h8.02c1.96,0,3.81.91,5.01,2.46l8.26,10.66c1.74,2.24,1.77,5.36.09,7.65l-15.82,21.43c-1.83,2.48-5.18,3.28-7.93,1.91l-13.6-6.79c-9.86-4.93-21.33-5.51-31.65-1.62l-26.19,9.89c-1.54.58-3.24.54-4.74-.11l-24.9-10.71c-7.65-3.29-16.35-3.1-23.85.53l-20.8,10.06c-1.49.72-3.21.83-4.78.3l-32.94-11.09c-9.37-3.15-19.66-1.87-27.97,3.49l-11.49,7.41c-1.02.66-2.22,1.01-3.44,1.01H6.59c-4,0-7-3.65-6.22-7.57l5.02-25.25c10.14-51,28.64-99.97,54.78-144.93h0c12.92-22.23,28.85-42.58,47.33-60.46l22.52-21.79c10.08-9.76,20.47-19.2,31.14-28.31h0c13.88-11.85,30.31-20.34,48.01-24.81l4.6-1.16c9.49-2.4,18.7,4.78,18.7,14.57Z"/>
  </g>
</svg>