<?xml version="1.0" encoding="UTF-8"?>
<svg id="Layer_1" data-name="Layer 1" xmlns="http://www.w3.org/2000/svg" viewBox="0 0 900.23 226.52">
  <defs>
    <style>
      .cls-1 {
        fill: #9d9d9d;
      }

      .cls-1, .cls-2 {
        stroke-width: 5px;
      }

      .cls-1, .cls-2, .cls-3, .cls-4 {
        stroke: #000;
        stroke-miterlimit: 10;
      }

      .cls-5 {
        fill: #e5e1e5;
      }

      .cls-3 {
        fill: #5e5c5e;
      }

      .cls-4 {
        fill: #f9f7f8;
        stroke-width: 3px;
      }
    </style>
  </defs>
  <g>
    <path class="cls-1" d="m81.39,120.71l16.87,81.24c-3.51,5.34-8.65,10.33-15.42,14.97s-14.22,6.96-22.36,6.96c-14.35,0-27.6-10.26-39.75-30.78C8.58,172.58,2.5,146.39,2.5,114.53s6.15-59.08,18.45-80.26C33.25,13.09,46.72,2.5,61.36,2.5c6.38,0,12.97,2.06,19.77,6.18,6.79,4.12,12.5,9.7,17.13,16.73l-16.87,75.76c-4.63-4.03-10.1-6.04-16.43-6.04-8.61,0-12.91,5.39-12.91,16.16,0,5.16,1.17,9.28,3.51,12.37,2.34,3.09,5.53,4.64,9.58,4.64,6.27,0,11.68-2.53,16.25-7.59Z"/>
    <path class="cls-1" d="m149.12,140.95v79.7h-40.32V6.15h40.32v78.57h20.73V6.15h40.23v214.5h-40.23v-79.7h-20.73Z"/>
    <path class="cls-1" d="m409.95,220.65h-40.32V6.15h39.09l16.34,44.7,16.43-44.7h39.36v214.5h-40.32v-107.39l-15.46,41.47-15.11-41.47v107.39Z"/>
    <path class="cls-1" d="m499.55,220.65V6.15h38.92c14.52,0,24.79,1.62,30.79,4.85,6,3.23,11.1,10.85,15.29,22.84,4.19,12,6.28,26.57,6.28,43.71,0,21.27-2.94,38.82-8.83,52.64-5.89,13.82-13.28,20.73-22.18,20.73l-19.94-.14v69.86h-40.32Zm41.02-168.11h-.7v46.67h.53l2.2.28c3.4,0,6.05-2.13,7.95-6.4,1.9-4.26,2.86-10.28,2.86-18.06,0-8.43-.92-14.29-2.77-17.57-1.84-3.28-5.2-4.92-10.06-4.92Z"/>
    <path class="cls-1" d="m641.86,166.82h35.31v53.83h-75.64V6.15h75.64v53.83h-35.31v26.57h24.68v53.83h-24.68v26.43Z"/>
    <path class="cls-1" d="m689.48,220.65V6.15h40.32c14,0,23.37.75,28.11,2.25,4.74,1.5,8.87,4.9,12.39,10.19,3.51,5.3,6.34,12.51,8.48,21.65,2.14,9.14,3.21,18.81,3.21,29.03,0,29.43-5.68,48.77-17.04,58.05l24.42,93.33h-41.9v-1.97l-17.13-77.45h-.53v79.42h-40.32Zm41.02-170.36h-.7v41.32h1.05c3.92,0,6.76-1.69,8.52-5.06s2.64-8.76,2.64-16.16c0-13.4-3.84-20.1-11.51-20.1Z"/>
    <path class="cls-1" d="m864.34,50.5c-2.49-2.58-4.76-4.29-6.81-5.13s-3.88-1.03-5.49-.56c-1.61.47-2.99,1.22-4.13,2.25-1.14,1.03-2.05,2.18-2.72,3.44s-1.1,2.23-1.27,2.88c-.18.66-.41,1.55-.7,2.67s-.44,2.41-.44,3.87.25,3.02.75,4.71,1.46,3.44,2.9,5.27,3.41,3.68,5.93,5.55c2.52,1.88,5.83,3.7,9.93,5.48,5.51,2.34,10.22,5.27,14.14,8.79s7.23,7.4,9.93,11.67c2.69,4.26,4.83,8.81,6.41,13.63,1.58,4.83,2.75,9.79,3.51,14.9.76,5.11,1.22,10.24,1.36,15.39.15,5.16.13,10.17-.04,15.04-.29,7.31-1.68,14.76-4.17,22.35s-6.03,14.43-10.63,20.52c-4.6,6.09-10.19,11.08-16.78,14.97s-14.13,5.83-22.62,5.83c-4.22,0-8.2-.63-11.95-1.9s-7.23-2.95-10.45-5.06-6.18-4.5-8.87-7.17-5.12-5.41-7.29-8.22c-5.1-6.56-9.46-14.01-13.09-22.35l23.1-29.8c2.05,4.12,4.38,7.9,6.98,11.32,2.61,3.42,5.27,6.35,7.99,8.79,2.72,2.44,5.4,4.29,8.04,5.55s5.05,1.83,7.25,1.69,4.07-1.05,5.62-2.74,2.59-4.31,3.12-7.87c.06-.47.06-1.48,0-3.02s-.35-3.21-.88-4.99c-.53-1.78-1.35-3.54-2.46-5.27-1.11-1.73-2.72-3.02-4.83-3.87-4.86-2.06-9.43-4.26-13.7-6.61-4.28-2.34-8.2-5.01-11.77-8.01-3.57-3-6.79-6.4-9.66-10.19s-5.36-8.17-7.47-13.14c-2.34-5.43-4.03-11.17-5.05-17.22-1.02-6.04-1.51-12.18-1.45-18.41.06-6.23.63-12.34,1.71-18.34,1.08-6,2.56-11.67,4.44-17.01s4.1-10.17,6.68-14.48c2.58-4.31,5.45-7.87,8.61-10.68,4.69-4.22,9.3-7.24,13.84-9.07s8.92-2.83,13.13-3.02c4.22-.19,8.26.31,12.12,1.48,3.87,1.17,7.44,2.7,10.72,4.57,7.73,4.41,14.93,10.78,21.61,19.12l-16.95,33.88c-2.93-5.06-5.64-8.88-8.13-11.46Z"/>
  </g>
  <g>
    <path class="cls-1" d="m356.48,221.02c.16-5.08.25-10.21.25-15.4,0-98.14-18.35-173.85-44.34-194.38-39.11-30.89-87.16,96.24-87.16,194.38,0,5.19.09,10.32.25,15.4h131Z"/>
    <path class="cls-5" d="m344.35,219.7c.13-2.7.2-5.43.2-8.19,0-52.21-15.13-92.49-36.57-103.41-32.26-16.43-71.88,51.2-71.88,103.41,0,2.76.07,5.49.2,8.19h108.04Z"/>
    <path class="cls-3" d="m333.27,186.78c0,27.64-17.53,17.09-40.55,17.09s-42.8,10.55-42.8-17.09,18.66-50.04,41.67-50.04,41.67,22.4,41.67,50.04Z"/>
    <path class="cls-4" d="m323,157.59l.85.85c3.6,3.58,5.74,8.24,6.19,13.5l.1,1.2-22.27,2.21,15.13-17.76Z"/>
    <path class="cls-4" d="m311.28,145c.42-.58.29-1.37-.29-1.64h0c-4.6-2.23-4.95-5-10.63-3.52-.06.01-2.77-1.9-2.83-1.89l-4.93.1c-.73.19,1.33,5.17,1.41,5.92l2.02,19.05c.1.97,1.28,1.2,1.89.37l13.36-18.37Z"/>
    <ellipse class="cls-2" cx="342.23" cy="135.11" rx="2.46" ry="3.71"/>
    <ellipse class="cls-2" cx="245.67" cy="135.11" rx="2.46" ry="3.71"/>
    <ellipse class="cls-2" cx="288.44" cy="30.4" rx="2.32" ry=".93"/>
    <ellipse class="cls-2" cx="309.9" cy="30.4" rx="2.32" ry=".93"/>
    <path class="cls-4" d="m323.5,159.23c.67-.3.96-1.05.62-1.57h0c-2.73-4.21-1.57-6.8-7.17-8.32-.06-.02-1.36-3.02-1.41-3.05l-4.24-2.35c-.72-.19-1.59,5.16-1.92,5.85l-8.32,17.58c-.42.89.46,1.68,1.41,1.25l21.02-9.4Z"/>
    <path class="cls-4" d="m260.64,154.36l-.85.85c-3.6,3.58-5.74,8.24-6.19,13.5l-.1,1.2,22.27,2.21-15.13-17.76Z"/>
    <path class="cls-4" d="m261.33,156.81c-.66-.3-.9-1.05-.52-1.58h0c3.1-4.26,2.11-6.87,7.94-8.42.06-.02,1.61-3.05,1.66-3.08l4.5-2.38c.75-.2,1.24,5.2,1.52,5.9l7.16,17.71c.36.9-.6,1.69-1.53,1.27l-20.74-9.41Z"/>
    <path class="cls-4" d="m274.28,143c-.37-.59-.14-1.34.5-1.57h0c5.11-1.82,5.82-4.48,11.62-2.63.06.02,3.15-1.63,3.21-1.62l5.18.46c.75.24-2.03,4.91-2.2,5.63l-4.44,18.3c-.23.93-1.5,1.06-2.03.21l-11.84-18.78Z"/>
    <path d="m300.48,140.22c1.93,0,1.93-3,0-3s-1.93,3,0,3h0Z"/>
    <path d="m297.97,138.84l.87.94c.14.15.3.25.48.31.18.09.37.14.58.13.21,0,.4-.04.58-.13.19-.06.35-.16.48-.31l.23-.3c.14-.23.2-.49.2-.76l-.05-.4c-.07-.25-.2-.47-.39-.66l-.87-.94c-.14-.15-.3-.25-.48-.31-.18-.09-.37-.14-.58-.13-.21,0-.4.04-.58.13-.19.06-.35.16-.48.31l-.23.3c-.14.23-.2.49-.2.76l.05.4c.07.25.2.47.39.66h0Z"/>
    <path d="m285.98,139.28c1.93,0,1.93-3,0-3s-1.93,3,0,3h0Z"/>
    <path d="m285.98,139.28h.29c.21,0,.4-.04.58-.13.19-.06.35-.16.48-.31.15-.14.25-.3.31-.48.09-.18.14-.37.13-.58l-.05-.4c-.07-.25-.2-.47-.39-.66l-.3-.23c-.23-.14-.49-.2-.76-.2h-.29c-.21,0-.4.04-.58.13-.19.06-.35.16-.48.31-.15.14-.25.3-.31.48-.09.18-.14.37-.13.58l.05.4c.07.25.2.47.39.66l.3.23c.23.14.49.2.76.2h0Z"/>
    <path d="m286.56,139.59c1.93,0,1.93-3,0-3s-1.93,3,0,3h0Z"/>
    <path d="m322.64,159.14l.86,1.13c.09.17.22.32.39.42.14.13.31.22.51.27l.4.05c.21,0,.4-.04.58-.13.13-.04.24-.1.33-.19.16-.11.29-.25.39-.42.18-.35.28-.77.15-1.16-.19-.57-.37-1.14-.56-1.7-.05-.2-.14-.37-.27-.51-.11-.16-.25-.29-.42-.39l-.36-.15c-.2-.06-.4-.07-.6-.03-.14,0-.26.03-.38.1-.19.06-.35.16-.48.31-.26.29-.46.66-.44,1.06,0,.21.04.42.08.62.02.08.04.16.07.24.07.18.14.38.24.55s.24.34.37.5c.14.15.3.25.48.31.18.09.37.14.58.13.21,0,.4-.04.58-.13.19-.06.35-.16.48-.31.26-.29.46-.66.44-1.06l-.05-.4c-.07-.25-.2-.47-.39-.66-.01-.01-.02-.03-.03-.04l.23.3c-.07-.1-.13-.2-.18-.31l.15.36c-.05-.11-.08-.23-.09-.35l.05.4s0-.09-.01-.14l-2.95.4c.19.57.37,1.14.56,1.7l2.74-1.16-.86-1.13c-.09-.17-.22-.32-.39-.42-.14-.13-.31-.22-.51-.27-.2-.06-.4-.07-.6-.03-.2,0-.39.07-.56.18-.32.21-.6.51-.69.9l-.05.4c0,.27.07.52.2.76h0Z"/>
    <path d="m255.1,164.59c.83-.5,1.53-1.2,2.04-2.02.26-.43.46-.91.62-1.38.07-.2.13-.4.2-.61.03-.1.07-.2.1-.3.02-.06.04-.12.07-.18.04-.11.03-.08-.03.08.02-.15.19-.36.27-.49.05-.08.1-.16.15-.23.19-.27,0,0,0,0-.04-.04.73-.76.81-.83.07-.06.14-.12.21-.18.06-.05.31-.3.05-.04.13-.12.3-.22.45-.33.33-.23.68-.45,1.02-.67.66-.42.99-1.36.54-2.05s-1.34-.99-2.05-.54c-1.45.92-2.92,1.93-3.81,3.44-.25.42-.43.87-.59,1.33-.08.22-.14.44-.22.67-.03.1-.07.2-.1.3-.13.37.09-.15-.01.03s-.19.37-.3.55c-.02.04-.2.31-.08.13s-.07.08-.1.11c-.12.14-.26.27-.4.4-.26.25.25-.16-.05.04-.09.06-.18.12-.28.18-.67.41-.98,1.36-.54,2.05s1.33.97,2.05.54h0Z"/>
    <path d="m324.01,161.06c.8.42,1.36.99,1.8,1.83.47.91.41,1.73.47,2.79.04.69.19,1.36.57,1.95.3.47.68.86.96,1.34.54.93.7,1.97.62,3.03-.06.81.74,1.5,1.5,1.5.86,0,1.44-.69,1.5-1.5.11-1.42-.18-2.83-.79-4.11-.29-.6-.7-1.09-1.08-1.63-.33-.46-.27-.82-.27-1.4,0-2.6-1.42-5.18-3.75-6.4-.72-.38-1.63-.18-2.05.54-.4.68-.18,1.67.54,2.05h0Z"/>
  </g>
</svg>